<svg width="79.000000" height="30.000000" viewBox="0 0 79 30" fill="none" xmlns="http://www.w3.org/2000/svg" xmlns:xlink="http://www.w3.org/1999/xlink">
	<desc>
			Created with Pixso.
	</desc>
	<defs/>
	<path id="logo" d="M76.3076 2.17883C74.4551 0.414551 71.7368 -0.309326 68.7642 0.121094L68.7642 6.58557C69.9668 6.51819 70.9434 6.96875 71.3779 7.87427C71.5537 8.24048 71.6382 8.65369 71.6382 9.09912C71.6382 10.3916 70.9282 11.9558 69.686 13.4326C67.1079 16.4973 60.2529 22.7697 60.2529 22.7697L70.0938 22.4442C76.1064 16.5259 78.2661 12.9337 78.6528 8.45044C78.6724 8.21936 78.6826 7.98901 78.6826 7.76013C78.6826 5.6394 77.8369 3.6355 76.3076 2.17883ZM67.6167 0.266235C62.1187 1.44531 59.2734 5.37073 59.2734 11.7524C59.2734 12.1012 59.2822 12.4574 59.2993 12.8208L65.4819 12.2683C65.4541 11.8728 65.4404 11.5073 65.4404 11.1694C65.4404 8.12292 66.5244 7.31506 67.6201 6.84998L67.6167 0.266235ZM48.5991 3.67578L48.5991 9.50403L57.146 8.55701L57.146 2.4657L48.5991 3.67578ZM41.6382 4.66125L41.6382 29.9999L47.5029 29.9999L47.5029 3.83081L41.6382 4.66125ZM26.6401 6.79236L26.6401 29.9999L31.7368 29.9999L31.7368 6.0708L26.6401 6.79236ZM18.4707 7.94897L18.4707 12.8484L24.9312 12.1327L24.9312 7.03455L18.4707 7.94897ZM13.1631 8.70068L13.1631 29.9998L17.6372 29.9998L17.6372 8.06726L13.1631 8.70068ZM0 10.5643L0 14.8954L11.5972 13.6101L11.5972 8.92261L0 10.5643ZM48.5991 13.8878L48.5991 19.8241L54.2012 19.5159L54.2012 13.4041L48.5991 13.8878ZM3.70068 15.1588L3.70068 30L7.94678 30L7.94678 14.7223L3.70068 15.1588ZM18.4707 16.4952L18.4707 21.4847L22.7119 21.2515L22.7119 16.1279L18.4707 16.4952ZM79 29.9998L79 23.2351L59.0391 23.7354L59.0391 29.9998L79 29.9998ZM48.5986 24.1628L48.5986 29.9998L57.146 29.9998L57.146 23.9032L48.5986 24.1628ZM32.688 24.6481L32.688 29.9998L40.0859 29.9998L40.0859 24.4231L32.688 24.6481ZM18.4707 25.0802L18.4707 29.9999L24.9312 29.9999L24.9312 24.8839L18.4707 25.0802Z" clip-rule="evenodd" fill="#FFFFFF" fill-opacity="1.000000" fill-rule="evenodd"/>
</svg>
